<svg xmlns="http://www.w3.org/2000/svg" version="1.1" xmlns:xlink="http://www.w3.org/1999/xlink" width="512" height="512" x="0" y="0" viewBox="0 0 486 486" style="enable-background:new 0 0 512 512" xml:space="preserve" class=""><g><path d="M243 0C108.8 0 0 108.8 0 243s108.8 243 243 243 243-108.8 243-243S377.2 0 243 0zm69.8 338.8c-10.6 12.9-24.4 21.6-40.5 26-7 1.9-10.2 5.6-9.8 12.9.3 7.2 0 14.3-.1 21.5 0 6.4-3.3 9.8-9.6 10-4.1.1-8.2.2-12.3.2-3.6 0-7.2 0-10.8-.1-6.8-.1-10-4-10-10.6-.1-5.2-.1-10.5-.1-15.7-.1-11.6-.5-12-11.6-13.8-14.2-2.3-28.2-5.5-41.2-11.8-10.2-5-11.3-7.5-8.4-18.3 2.2-8 4.4-16 6.9-23.9 1.8-5.8 3.5-8.4 6.6-8.4 1.8 0 4.1.9 7.2 2.5 14.4 7.5 29.7 11.7 45.8 13.7 2.7.3 5.4.5 8.1.5 7.5 0 14.8-1.4 21.9-4.5 17.9-7.8 20.7-28.5 5.6-40.9-5.1-4.2-11-7.3-17.1-10-15.7-6.9-32-12.1-46.8-21-24-14.4-39.2-34.1-37.4-63.3 2-33 20.7-53.6 51-64.6 12.5-4.5 12.6-4.4 12.6-17.4 0-4.4-.1-8.8.1-13.3.3-9.8 1.9-11.5 11.7-11.8H246c18.6 0 18.6.8 18.7 20.9.1 14.8.1 14.8 14.8 17.1 11.3 1.8 22 5.1 32.4 9.7 5.7 2.5 7.9 6.5 6.1 12.6-2.6 9-5.1 18.1-7.9 27-1.8 5.4-3.5 7.9-6.7 7.9-1.8 0-4-.7-6.8-2.1-14.4-7-29.5-10.4-45.3-10.4-2 0-4.1.1-6.1.2-4.7.3-9.3.9-13.7 2.8-15.6 6.8-18.1 24-4.8 34.6 6.7 5.4 14.4 9.2 22.3 12.5 13.8 5.7 27.6 11.2 40.7 18.4 41.2 23 52.4 75.3 23.1 110.9z" fill="#000000" opacity="1" data-original="#000000" class=""></path></g></svg>