<?xml version="1.0" encoding="UTF-8"?>
<svg id="Camada_2" data-name="Camada 2" xmlns="http://www.w3.org/2000/svg" xmlns:xlink="http://www.w3.org/1999/xlink" viewBox="0 0 951.71 737.38">
  <defs>
    <style>
      .cls-1 {
        fill: url(#linear-gradient-2);
      }

      .cls-2 {
        fill: #cf050a;
      }

      .cls-3 {
        fill: #920402;
      }

      .cls-4 {
        fill: #fa1213;
      }

      .cls-5 {
        fill: url(#linear-gradient);
      }

      .cls-6 {
        fill: #fdfdfd;
      }
    </style>
    <linearGradient id="linear-gradient" x1="587.87" y1="401.62" x2="849.47" y2="401.62" gradientUnits="userSpaceOnUse">
      <stop offset="0" stop-color="#ed1112"/>
      <stop offset="1" stop-color="#920402"/>
    </linearGradient>
    <linearGradient id="linear-gradient-2" x1="350.95" y1="366.49" x2="183.54" y2="484.08" xlink:href="#linear-gradient"/>
  </defs>
  <g id="Layer_1" data-name="Layer 1">
    <polyline class="cls-6" points="601.06 408.05 603.29 412.28 605.68 416.46 608.15 420.61 610.75 424.76 613.5 428.9 616.33 433.01 619.28 437.07 622.39 441.14 625.57 445.2 628.92 449.23 632.35 453.22 635.94 457.2 639.61 461.19 643.43 465.13 647.34 469.04 651.4 472.95 654.87 476.18 658.34 479.29 661.85 482.31 665.35 485.26 668.9 488.09 672.49 490.84 676.12 493.48 679.74 496.03 683.41 498.5 687.08 500.85 690.79 503.08 694.53 505.27 698.28 507.35 702.07 509.3 705.89 511.17 709.72 512.97 713.43 514.8 717.25 516.51 721.12 518.15 725.11 519.62 729.13 521.02 733.2 522.26 737.3 523.37 741.45 524.37 745.55 525.24 749.7 525.96 753.81 526.56 757.95 527 762.02 527.32 766.04 527.48 770.07 527.52 774.01 527.4 777.84 527.16 781.67 526.76 785.38 526.24 789.04 525.56 792.59 524.81 796.06 523.85 799.45 522.81 802.79 521.62 805.98 520.3 809.13 518.87 812.16 517.31 815.11 515.6 817.9 513.76 820.61 511.81 823.24 509.74 825.75 507.55 828.31 505.07 830.78 502.44 833.09 499.65 835.28 496.74 837.15 493.99 838.87 491.16 840.46 488.21 841.94 485.22 843.29 482.08 844.53 478.89 845.6 475.58 846.56 472.23 847.36 468.76 848.08 465.25 848.63 461.63 849.03 458 849.31 454.25 849.47 450.47 849.47 446.64 849.35 442.77 849.07 438.79 848.67 434.76 848.12 430.73 847.44 426.67 846.64 422.6 845.68 418.54 844.61 414.43 843.41 410.41 842.06 406.34 840.58 402.35 839.03 398.41 837.31 394.5 835.52 390.67 833.61 386.93 831.61 383.3 829.5 379.75 825.59 373.57 821.53 367.52 817.3 361.66 812.92 355.92 808.42 350.3 803.75 344.87 798.93 339.57 793.99 334.43 793.99 334.43 793.99 334.43 793.99 334.43 790.8 331.28 787.57 328.21 784.26 325.18 780.91 322.19 777.48 319.28 774.01 316.45 770.47 313.66 766.88 310.91 762.81 307.92 758.63 305.05 754.36 302.26 750.06 299.59 745.71 297.04 741.37 294.65 736.9 292.34 732.48 290.23 728.06 288.19 723.59 286.36 719.13 284.61 714.7 283.05 710.28 281.62 705.89 280.34 701.47 279.22 697.12 278.27 692.82 277.43 688.59 276.79 684.37 276.27 680.22 275.96 676.12 275.76 672.01 275.72 667.99 275.8 664 276.08 660.09 276.51 656.23 277.07 652.44 277.79 648.69 278.67 645.03 279.7 641.4 280.9 637.85 282.21 634.34 283.73 629.76 285.96 625.85 288.15 622.11 290.5 618.52 293.06 615.13 295.73 611.9 298.6 608.87 301.59 606.04 304.77 603.41 308.08 601.62 310.55 599.98 313.07 598.39 315.7 596.91 318.37 595.56 321.12 594.32 323.91 593.17 326.78 592.17 329.73 591.21 332.72 590.42 335.75 589.7 338.86 589.1 341.96 588.62 345.15 588.26 348.34 588.03 351.61 587.91 354.88 587.87 358.23 587.99 361.58 588.18 364.92 588.5 368.27 588.94 371.66 589.5 375.05 590.18 378.44 590.94 381.83 591.85 385.17 592.85 388.52 593.96 391.87 595.16 395.18 596.48 398.45 597.91 401.68 599.43 404.91 601.06 408.05"/>
    <polyline class="cls-6" points="182.24 374.85 179.81 379.19 177.46 383.54 175.31 387.92 173.27 392.35 171.4 396.77 169.65 401.2 168.09 405.66 166.66 410.09 165.38 414.55 164.23 418.98 163.27 423.4 162.47 427.79 161.83 432.13 161.32 436.47 161 440.78 160.84 445.04 160.84 448.99 160.96 452.9 161.24 456.76 161.64 460.59 162.19 464.34 162.87 468 163.71 471.63 164.7 475.18 165.78 478.69 167.06 482.08 168.41 485.42 169.93 488.65 171.6 491.8 173.35 494.87 175.27 497.82 177.3 500.69 179.17 503.12 181.17 505.47 183.4 507.91 185.71 510.26 188.14 512.49 190.65 514.6 193.28 516.67 196 518.59 198.83 520.42 201.7 522.14 204.68 523.77 207.75 525.24 210.9 526.64 214.13 527.91 217.44 529.11 220.83 530.15 224.26 531.06 227.76 531.9 231.35 532.62 234.98 533.18 238.65 533.66 242.39 533.97 246.18 534.21 250.01 534.33 253.87 534.29 257.78 534.17 261.73 533.89 265.71 533.54 269.7 533.06 273.72 532.42 277.79 531.7 281.85 530.86 285.92 529.91 289.99 528.83 294.73 527.44 299.47 525.88 304.18 524.21 308.88 522.37 313.58 520.38 318.25 518.27 322.91 516 327.54 513.57 332.08 511.05 336.58 508.34 341.09 505.55 345.47 502.64 349.82 499.57 354.08 496.43 358.31 493.16 362.41 489.77 367.12 485.7 371.66 481.48 376.09 477.17 380.39 472.71 384.54 468.16 388.52 463.46 392.35 458.72 396.02 453.85 399.52 448.91 402.83 443.89 405.98 438.83 408.93 433.68 411.68 428.5 414.23 423.32 416.58 418.06 418.74 412.8 420.33 408.49 421.77 404.19 423.08 399.88 424.24 395.58 425.27 391.31 426.15 387.05 426.87 382.82 427.43 378.6 427.86 374.41 428.14 370.27 428.26 366.12 428.22 362.05 428.06 358.07 427.75 354.08 427.27 350.18 426.63 346.35 426.07 343.52 425.39 340.73 424.68 337.94 423.84 335.23 422.92 332.56 421.97 329.93 420.89 327.38 419.73 324.82 418.5 322.35 417.22 319.96 415.83 317.57 414.35 315.26 412.84 313.03 411.2 310.83 409.53 308.72 407.77 306.65 404.91 303.54 401.88 300.63 398.65 297.84 395.3 295.25 392.27 293.14 389.12 291.14 385.89 289.31 382.54 287.6 379.08 286 375.53 284.53 371.9 283.25 368.15 282.05 364.33 281.06 360.42 280.14 356.47 279.42 352.41 278.83 348.3 278.39 344.16 278.07 339.89 277.91 335.63 277.91 331.28 278.07 326.86 278.35 322.43 278.79 317.93 279.38 313.46 280.1 308.92 280.98 304.38 282.01 299.83 283.17 295.29 284.49 290.74 285.96 286.16 287.56 281.66 289.27 277.11 291.14 272.61 293.14 268.14 295.25 263.68 297.52 257.5 300.91 251.4 304.5 245.42 308.36 239.56 312.43 233.78 316.73 228.16 321.2 222.7 325.9 217.4 330.76 212.3 335.79 207.36 341.01 202.61 346.35 198.07 351.81 193.76 357.43 189.7 363.13 185.83 368.95 182.24 374.85"/>
    <polygon class="cls-6" points="368.79 546.85 371.34 564.31 371.58 565.5 372.02 566.7 372.58 567.78 373.26 568.81 379.51 576.66 385.97 584.44 392.71 592.01 399.64 599.47 406.78 606.76 414.15 613.97 421.77 620.99 429.62 627.89 435.28 632.59 440.98 637.01 446.72 641.16 452.5 645.03 458.32 648.57 464.14 651.84 470 654.83 475.9 657.54 481.8 659.93 487.74 662.05 493.67 663.84 499.65 665.35 505.63 666.59 511.61 667.51 517.59 668.15 523.65 668.46 529.23 668.5 534.85 668.3 540.47 667.83 546.13 667.11 551.75 666.11 557.37 664.88 562.99 663.36 568.65 661.61 571.44 660.61 574.23 659.54 577.1 658.3 579.93 656.98 582.88 655.55 585.79 653.99 588.78 652.28 591.73 650.53 594.76 648.61 597.79 646.58 603.85 642.28 609.99 637.49 616.13 632.35 622.35 626.77 628.44 620.87 634.46 614.69 640.28 608.27 645.86 601.7 651.16 595 656.11 588.34 660.65 581.69 662.88 578.18 665 574.55 666.99 570.96 668.78 567.46 670.34 564.11 671.69 560.88 672.81 557.81 673.73 554.9 674.4 552.19 674.84 549.6 675.08 547.25 675.08 545.1 674.84 543.06 674.4 541.27 673.73 539.59 672.85 538.16 672.01 537.28 670.98 536.56 669.86 536.13 668.62 535.97 667.43 536.05 666.23 536.41 665.2 537 664.28 537.84 664.28 537.84 664.28 537.84 663.6 538.84 660.41 544.54 657.06 550 653.64 555.18 650.09 560.04 646.42 564.63 642.63 568.89 638.81 572.84 634.86 576.47 630.88 579.73 626.77 582.68 624.74 584.04 622.66 585.27 620.55 586.47 618.44 587.59 616.29 588.58 614.13 589.54 611.98 590.38 609.79 591.13 607.6 591.81 605.36 592.41 603.13 592.89 600.9 593.33 596.91 593.84 592.93 594.12 588.82 594.12 584.72 593.88 580.57 593.37 576.43 592.61 572.2 591.57 567.94 590.26 565.03 589.22 562.28 588.18 559.72 587.15 557.37 586.07 555.18 584.96 553.15 583.84 551.23 582.64 549.48 581.45 547.89 580.17 546.49 578.9 545.17 577.58 544.02 576.23 543.06 574.83 542.19 573.36 541.51 571.84 540.95 570.29 540.43 568.09 540.19 565.82 540.23 563.43 540.51 561 541.11 558.41 541.99 555.82 543.1 553.07 544.54 550.24 544.9 549.64 545.37 549.08 545.85 548.6 546.41 548.16 547.01 547.81 547.65 547.53 548.32 547.29 549 547.17 554.42 546.33 559.64 545.29 564.71 544.14 569.57 542.74 574.15 541.27 578.46 539.59 582.48 537.8 586.23 535.85 589.62 533.77 592.73 531.58 595.52 529.27 598.03 526.84 600.18 524.29 601.18 522.97 602.06 521.58 602.85 520.22 603.61 518.79 604.25 517.31 604.85 515.84 605.64 513.21 606.2 510.54 606.56 507.71 606.64 504.84 606.48 501.89 606.12 498.86 605.48 495.71 604.61 492.52 604.09 490.96 603.45 489.41 602.73 487.86 601.94 486.34 601.02 484.83 600.02 483.35 598.95 481.88 597.75 480.4 596.48 478.97 595.12 477.57 592.13 474.86 588.82 472.19 585.16 469.68 581.05 467.21 576.7 464.9 572.08 462.74 567.26 460.79 562.24 459.08 557.17 457.56 552.15 456.37 547.33 455.49 543.54 454.93 539.67 454.49 535.77 454.13 531.86 453.81 527.99 453.61 524.09 453.5 520.22 453.46 516.4 453.5 512.61 453.65 508.94 453.85 505.23 454.17 501.65 454.57 498.14 455.05 494.71 455.61 491.32 456.25 488.01 456.96 484.87 457.76 481.8 458.6 478.81 459.55 475.94 460.59 473.15 461.67 470.4 462.82 467.81 464.1 465.25 465.41 462.86 466.81 460.51 468.28 458.32 469.84 456.17 471.43 454.13 473.11 452.22 474.9 450.39 476.69 448.67 478.61 447 480.68 445.48 482.79 444.09 485.02 442.85 487.3 441.78 489.65 440.86 492 440.1 494.39 439.5 496.82 439.11 499.22 438.87 501.65 438.83 504 438.95 506.35 439.23 508.7 439.7 510.97 440.34 513.21 441.14 515.36 442.37 517.95 443.85 520.42 445.6 522.77 447.56 524.97 449.79 527.12 452.14 529.15 454.61 531.06 457.24 532.86 459.95 534.53 462.82 536.13 465.77 537.56 468.88 538.92 472.11 540.11 475.46 541.23 478.97 542.23 482.55 543.1 486.3 543.86 490.13 544.5 494.11 545.02 498.22 545.41 501.05 545.69 503.28 546.01 505.27 546.37 506.99 546.85 508.54 547.41 509.9 548.08 511.09 548.88 512.17 549.8 512.85 550.52 513.45 551.31 514 552.19 514.48 553.11 514.88 554.1 515.24 555.22 515.84 557.69 516.24 560.48 516.44 563.11 516.44 565.62 516.2 568.02 515.76 570.29 515.12 572.4 514.28 574.39 513.25 576.27 513.25 576.27 513.25 576.27 512.25 577.7 511.09 579.06 509.78 580.29 508.34 581.45 506.75 582.52 505.04 583.52 503.16 584.44 501.17 585.23 499.22 585.95 499.22 585.95 499.22 585.95 494.27 587.67 489.25 589.22 484.19 590.66 479.09 591.93 473.9 593.09 468.72 594.12 463.46 595 458.16 595.76 455.25 596.04 452.26 596.08 449.27 595.96 446.2 595.6 443.09 595.04 439.94 594.28 436.79 593.33 433.56 592.17 430.34 590.78 427.07 589.22 423.8 587.43 420.53 585.47 417.3 583.36 414.11 581.09 410.96 578.62 407.93 576.03 401.32 570.01 393.58 562.63 384.74 553.94 374.81 543.86 374.17 543.34 373.42 542.98 372.54 542.82 371.62 542.86 370.78 543.14 370.03 543.62 369.43 544.3 368.99 545.06 368.79 545.93 368.79 546.85 368.79 546.85"/>
    <polygon class="cls-6" points="712.31 369.75 712.15 372.66 711.75 375.53 711.04 378.32 710.08 381.07 708.84 383.66 707.33 386.17 705.61 388.48 703.66 390.63 701.51 392.59 699.2 394.3 696.69 395.82 694.09 397.05 691.34 398.01 688.55 398.73 685.68 399.13 682.77 399.28 679.86 399.13 676.99 398.73 674.2 398.01 671.45 397.05 668.86 395.82 666.35 394.3 664.04 392.59 661.89 390.63 659.93 388.48 658.22 386.17 656.71 383.66 655.47 381.07 654.51 378.32 653.8 375.53 653.4 372.66 653.24 369.75 653.4 366.84 653.8 363.97 654.51 361.18 655.47 358.43 656.71 355.84 658.22 353.33 659.93 351.01 661.89 348.86 664.04 346.91 666.35 345.19 668.86 343.68 671.45 342.44 674.2 341.49 676.99 340.77 679.86 340.37 682.77 340.21 685.68 340.37 688.55 340.77 691.34 341.49 694.09 342.44 696.69 343.68 699.2 345.19 701.51 346.91 703.66 348.86 705.61 351.01 707.33 353.33 708.84 355.84 710.08 358.43 711.04 361.18 711.75 363.97 712.15 366.84 712.31 369.75 712.31 369.75"/>
    <polygon class="cls-6" points="313.28 371.44 313.5 368.62 314.03 365.84 314.84 363.11 315.93 360.48 317.29 357.96 318.92 355.58 320.78 353.36 322.87 351.32 325.16 349.48 327.64 347.87 330.27 346.49 333.03 345.35 335.91 344.48 338.86 343.88 341.86 343.55 344.88 343.49 347.9 343.71 350.88 344.21 353.79 344.98 356.61 346.01 359.31 347.3 361.86 348.82 364.24 350.58 366.43 352.54 368.4 354.69 370.13 357.01 371.62 359.48 372.84 362.07 373.79 364.76 374.44 367.52 374.81 370.33 374.88 373.16 374.88 373.16 374.65 375.98 374.13 378.76 373.32 381.48 372.23 384.12 370.86 386.64 369.24 389.02 367.38 391.24 365.29 393.28 363 395.11 360.52 396.73 357.89 398.11 355.12 399.24 352.25 400.12 349.3 400.72 346.3 401.05 343.27 401.11 340.26 400.88 337.28 400.39 334.37 399.62 331.55 398.58 328.85 397.3 326.3 395.77 323.92 394.02 321.73 392.06 319.76 389.91 318.02 387.59 316.53 385.12 315.31 382.53 314.37 379.84 313.71 377.08 313.35 374.27 313.28 371.44 313.28 371.44"/>
    <polygon class="cls-6" points="523.37 468.6 526.44 468.6 529.47 468.68 532.46 468.88 535.41 469.2 538.28 469.6 541.03 470.12 543.74 470.71 546.33 471.39 548.8 472.19 551.15 473.07 553.43 474.06 555.58 475.14 557.57 476.26 559.52 477.53 561.32 478.85 563.03 480.28 563.35 480.68 563.63 481.12 563.75 481.64 563.79 482.12 563.71 482.63 563.47 483.11 563.19 483.55 562.79 483.87 562.79 483.87 562.31 484.11 557.81 485.74 553.23 487.14 548.56 488.33 543.82 489.33 538.96 490.13 533.97 490.73 528.95 491.12 523.81 491.32 518.67 491.28 513.61 491.08 508.62 490.69 503.76 490.05 498.94 489.25 494.23 488.21 489.61 486.98 485.06 485.54 484.55 485.3 484.15 484.99 483.83 484.59 483.63 484.11 483.51 483.59 483.51 483.07 483.63 482.59 483.87 482.12 484.19 481.72 485.86 480.24 487.62 478.85 489.49 477.53 491.48 476.3 493.56 475.18 495.83 474.1 498.14 473.15 500.57 472.23 503.12 471.43 505.83 470.75 508.54 470.16 511.41 469.64 514.32 469.2 517.31 468.92 520.34 468.68 523.37 468.6 523.37 468.6"/>
    <polygon class="cls-4" points="658.14 77.37 657.38 77.29 656.67 77.05 656.67 77.05 655.87 76.61 655.23 75.93 654.75 75.18 654.51 74.3 654.47 73.38 654.63 72.47 655.03 71.67 655.63 70.95 660.29 66.81 665.24 62.86 670.38 59.11 675.8 55.57 681.5 52.22 687.4 49.07 693.58 46.12 699.99 43.37 707.85 40.3 715.54 37.59 723.03 35.2 730.37 33.12 737.5 31.37 744.56 29.94 751.41 28.82 758.15 28.02 764.77 27.54 771.22 27.38 777.6 27.5 780.71 27.7 783.82 27.98 786.89 28.34 789.96 28.78 792.99 29.3 795.98 29.9 798.93 30.57 801.88 31.29 804.79 32.13 807.66 33.04 812.72 34.84 817.62 36.87 822.49 39.18 827.27 41.73 832.01 44.52 836.6 47.55 841.18 50.86 845.64 54.41 849.75 57.96 853.7 61.62 857.4 65.41 860.95 69.32 864.3 73.34 867.45 77.49 870.44 81.75 873.19 86.1 873.19 86.1 873.19 86.1 873.19 86.1 873.19 86.1 875.06 89.37 876.86 92.64 878.53 96.02 880.12 99.45 881.6 102.92 882.99 106.51 884.27 110.1 885.43 113.76 886.5 117.51 887.46 121.3 888.34 125.16 889.09 129.07 889.77 133.06 890.33 137.12 890.81 141.23 891.17 145.37 891.13 145.65 891.01 145.93 890.77 146.09 890.49 146.21 890.21 146.25 889.85 146.25 889.53 146.13 889.25 145.85 889.09 145.53 887.58 139.75 885.86 134.09 883.95 128.55 881.84 123.13 879.53 117.87 877.02 112.77 874.26 107.78 871.35 102.96 868.25 98.3 864.98 93.83 861.51 89.53 857.88 85.42 854.06 81.48 850.07 77.73 845.96 74.18 841.66 70.83 837.59 67.92 833.37 65.21 829.06 62.7 824.64 60.31 820.09 58.16 815.43 56.12 810.69 54.33 805.86 52.74 800.92 51.3 795.9 50.06 790.8 49.03 785.61 48.15 780.39 47.51 775.09 47.04 769.71 46.8 764.29 46.72 761.1 46.76 757.95 46.92 754.84 47.16 751.77 47.47 748.74 47.87 745.79 48.35 742.88 48.95 740.01 49.59 737.22 50.34 734.47 51.18 731.72 52.1 729.05 53.09 726.46 54.17 723.87 55.37 721.36 56.6 718.89 57.96 718.89 57.96 716.3 59.51 713.75 61.15 711.23 62.9 708.8 64.73 699.44 71.99 696.33 74.26 694.29 75.7 692.98 76.41 691.58 76.93 690.11 77.25 688.63 77.37 658.14 77.37 658.14 77.37"/>
    <polygon class="cls-4" points="32.77 176.14 32.69 176.46 32.53 176.74 32.25 176.94 31.93 177.02 31.89 177.02 31.57 176.98 31.33 176.82 31.13 176.58 31.05 176.3 30.69 171.88 30.41 167.3 30.29 162.51 30.25 157.57 30.33 152.47 30.53 147.17 30.85 141.7 31.29 136.08 31.85 130.9 32.61 125.84 33.6 120.86 34.76 116.03 36.15 111.29 37.79 106.67 39.58 102.12 41.61 97.74 43.65 93.79 45.76 89.97 48.03 86.18 50.42 82.47 50.42 82.47 50.42 82.47 50.42 82.47 53.97 77.49 57.72 72.71 61.74 68.04 65.97 63.54 70.47 59.19 75.18 55.01 80.16 51.02 85.34 47.16 86.58 46.32 87.93 45.56 91 44.05 94.63 42.57 98.77 41.18 103.36 39.86 108.5 38.63 114.16 37.43 121.34 36.07 124.68 35.44 129.63 34.56 134.53 33.88 139.43 33.36 144.3 33 149.16 32.85 154.02 32.85 158.84 33 163.67 33.32 167.3 33.68 170.92 34.16 174.55 34.72 178.14 35.4 181.72 36.15 185.31 36.99 188.9 37.95 192.45 38.98 196 40.14 199.54 41.38 203.09 42.73 206.64 44.17 210.15 45.72 213.65 47.35 217.16 49.07 220.67 50.9 233.19 57.8 246.22 65.25 259.77 73.26 273.8 81.83 274.44 82.35 274.96 82.99 274.96 82.99 275.32 83.83 275.48 84.7 275.4 85.62 275.12 86.46 274.6 87.22 273.92 87.81 273.13 88.25 272.25 88.45 253.39 90.28 251.8 90.36 250.21 90.24 248.65 89.97 247.1 89.53 245.62 88.93 244.23 88.17 242.91 87.3 241.68 86.26 238.93 83.83 235.62 81.28 231.83 78.53 227.49 75.66 222.62 72.59 217.24 69.4 211.34 66.05 204.92 62.54 200.58 60.31 196.23 58.36 191.89 56.68 187.54 55.25 183.2 54.05 178.89 53.09 174.55 52.42 170.21 52.02 165.98 51.78 161.83 51.62 157.77 51.58 153.78 51.58 149.88 51.7 146.05 51.9 142.34 52.18 138.72 52.54 135.21 52.97 131.78 53.53 128.47 54.13 125.28 54.85 122.17 55.61 119.18 56.48 116.23 57.44 113.44 58.48 110.21 59.79 107.03 61.15 103.92 62.58 100.89 64.1 97.9 65.65 94.99 67.28 92.12 68.96 89.33 70.71 86.58 72.51 83.91 74.38 81.32 76.33 78.76 78.33 76.25 80.36 73.86 82.51 71.47 84.66 69.2 86.94 69.2 86.94 69.2 86.94 69.2 86.94 66.21 90.05 63.34 93.23 60.55 96.58 57.92 100.01 55.37 103.56 52.94 107.23 50.62 111.01 48.43 114.92 46.32 118.9 44.36 123.01 42.49 127.24 40.74 131.58 39.1 136 37.55 140.59 36.15 145.25 34.84 150.04 34.48 151.63 34.16 153.74 33.6 159.32 33.12 166.78 32.77 176.14 32.77 176.14"/>
    <polygon class="cls-4" points="867.19 248.03 867.71 248.1 868.23 248.39 868.73 248.89 869.19 249.59 869.59 250.44 869.92 251.43 870.16 252.51 870.31 253.65 870.36 254.79 870.3 255.9 870.15 256.93 869.9 257.84 869.56 258.6 869.15 259.18 868.69 259.55 868.19 259.71 867.67 259.64 867.15 259.35 866.65 258.85 866.19 258.16 865.79 257.3 865.46 256.31 865.21 255.23 865.07 254.1 865.02 252.95 865.07 251.85 865.23 250.82 865.48 249.9 865.82 249.14 866.22 248.56 866.69 248.19 867.19 248.03 867.19 248.03"/>
    <polygon class="cls-4" points="688.08 474.22 685.21 473.51 682.38 472.67 679.58 471.67 676.83 470.6 676.83 470.6 676.83 470.6 674.24 469.4 671.73 468.12 669.22 466.69 666.79 465.17 664.4 463.5 662.05 461.75 659.73 459.83 657.5 457.84 657.26 457.44 657.22 456.96 657.42 456.52 657.86 456.25 658.34 456.21 662.41 456.88 666.39 457.4 670.26 457.8 674 458.04 677.71 458.12 681.3 458.08 684.81 457.88 688.23 457.52 691.58 457.04 694.77 456.41 697.96 455.61 701.03 454.65 703.98 453.57 706.85 452.34 709.64 450.98 712.39 449.43 715.38 447.52 718.25 445.4 721.04 443.05 723.67 440.54 725.54 438.55 727.3 436.51 728.89 434.4 730.41 432.29 731.72 430.1 732.96 427.86 734.03 425.55 734.99 423.24 734.99 423.24 735.83 420.77 736.55 418.26 737.1 415.71 737.5 413.08 737.78 410.45 737.94 407.7 737.94 404.94 737.78 402.11 737.66 400.72 737.66 399.56 737.78 398.53 737.98 397.73 738.3 397.21 738.82 396.93 739.38 396.89 739.93 397.13 740.21 397.49 741.61 400 742.84 402.55 743.96 405.1 744.96 407.62 745.83 410.21 746.55 412.76 747.15 415.35 747.59 417.9 747.91 420.49 748.11 423.04 748.19 425.59 748.11 428.1 747.87 430.62 747.51 433.09 747.03 435.56 746.39 437.99 745.75 440.1 745 442.17 744.16 444.21 743.2 446.2 742.13 448.15 741.01 450.03 739.77 451.9 738.46 453.65 737.02 455.41 735.55 457.08 733.96 458.72 732.32 460.27 730.61 461.75 728.77 463.14 726.9 464.5 724.99 465.77 722.99 466.93 720.92 468.04 718.81 469.04 716.66 470 714.46 470.83 712.19 471.59 709.92 472.27 707.57 472.87 705.22 473.35 702.82 473.74 700.43 474.06 698 474.26 695.53 474.42 693.06 474.42 690.59 474.38 688.08 474.22 688.08 474.22"/>
    <polygon class="cls-4" points="276.71 409.73 278.59 415.43 281.1 424.04 281.97 426.87 282.97 429.62 284.13 432.29 285.4 434.84 286.8 437.31 288.35 439.7 289.99 441.98 291.74 444.17 293.45 446.04 295.25 447.8 297.12 449.51 299.11 451.1 301.19 452.62 303.3 454.05 305.57 455.37 307.88 456.6 310.28 457.72 312.71 458.72 315.22 459.63 317.81 460.47 320.44 461.15 323.11 461.75 325.86 462.22 328.61 462.58 331.44 462.82 334.27 462.94 337.14 462.98 339.97 462.86 342.84 462.66 345.71 462.34 348.58 461.91 351.41 461.35 354.2 460.67 356.95 459.91 359.7 459.04 362.41 458.04 365.08 456.92 367.68 455.73 370.23 454.45 372.7 453.06 373.02 452.94 373.38 452.9 373.69 452.98 373.97 453.14 374.17 453.38 374.33 453.65 374.41 453.93 374.37 454.25 374.25 454.57 374.09 454.81 371.38 457.6 368.59 460.15 365.76 462.54 362.81 464.78 359.78 466.77 356.71 468.6 353.52 470.24 350.3 471.67 350.3 471.67 350.3 471.67 350.3 471.67 346.55 473.11 342.68 474.26 338.74 475.18 334.67 475.86 331.44 476.26 328.33 476.53 325.3 476.69 322.31 476.73 319.44 476.65 316.65 476.45 313.9 476.18 311.27 475.78 308.72 475.22 306.25 474.58 303.86 473.82 301.55 472.95 299.31 471.99 297.16 470.87 295.09 469.68 293.1 468.32 293.1 468.32 293.1 468.32 293.1 468.32 290.94 466.65 288.87 464.86 286.88 462.86 285 460.75 283.29 458.44 281.62 456.01 280.1 453.46 278.67 450.71 277.35 447.8 276.23 444.81 275.16 441.14 274.36 437.39 273.8 433.49 273.56 429.38 273.52 425.11 273.8 420.53 274.28 415.59 275.08 409.93 275.24 409.53 275.6 409.25 276.04 409.17 276.47 409.37 276.71 409.73 276.71 409.73"/>
    <polygon class="cls-4" points="592.97 614.21 593.65 614.61 594.24 615.09 594.72 615.73 595.08 616.41 595.32 617.12 595.44 617.92 595.36 618.68 595.16 619.44 594.56 620.91 593.88 622.39 592.29 625.25 590.34 628.09 588.07 630.84 585.51 633.55 582.64 636.1 579.46 638.61 576.03 641 572.24 643.27 568.21 645.42 563.99 647.42 559.6 649.21 555.14 650.81 550.64 652.16 546.13 653.28 541.79 654.07 535.81 654.87 529.95 655.31 527.08 655.43 524.21 655.43 521.38 655.39 518.55 655.27 515.76 655.03 512.97 654.75 510.26 654.35 507.55 653.91 504.84 653.36 502.17 652.76 499.53 652.04 496.9 651.28 496.9 651.28 496.9 651.28 496.9 651.28 496.9 651.28 496.9 651.28 494.23 650.37 491.56 649.41 488.93 648.33 486.34 647.18 483.75 645.94 481.2 644.63 478.69 643.19 476.18 641.72 473.7 640.12 471.27 638.45 468.88 636.69 466.49 634.82 464.1 632.91 461.79 630.88 459.47 628.76 457.2 626.57 456.29 625.61 455.53 624.7 454.89 623.78 454.41 622.9 454.05 622.07 453.85 621.23 453.81 620.47 453.85 619.67 453.85 619.67 453.97 619.28 454.33 618.24 454.81 617.28 455.41 616.37 456.05 615.49 456.8 614.73 457.6 614.01 458.48 613.38 459.43 612.86 460.39 612.46 461.39 612.14 462.42 611.94 463.46 611.82 464.54 611.86 465.57 611.98 466.57 612.22 467.57 612.58 467.57 612.58 468.4 612.98 472.63 615.13 476.89 617.12 481.16 618.84 485.5 620.39 489.85 621.71 494.19 622.78 498.58 623.7 503 624.38 503 624.38 505.71 624.66 508.42 624.9 513.88 625.1 519.38 625.02 524.93 624.58 530.51 623.86 536.13 622.82 541.79 621.43 547.49 619.75 555.62 617 561.48 614.97 565.62 613.66 569.37 612.66 572.72 611.94 576.03 611.5 579.14 611.3 582.17 611.38 585.12 611.78 587.07 612.18 589.06 612.74 591.01 613.38 592.97 614.21 592.97 614.21"/>
    <path class="cls-2" d="M951.67,504l-.12-4.98-.2-5.1-.28-5.1-.36-5.14-.48-5.18-1.12-10.44-1.51-10.6-1.83-10.84-2.15-10.96-2.51-11.08-2.87-11.12-3.15-11.24-3.51-11.24-3.83-11.28-4.11-11.28-4.46-11.36-4.7-11.24-5.02-11.24-5.26-11.08-5.54-11-5.78-10.76-5.98-10.6-6.14-10.32-.24-.68-.04-.68.16-.68.4-.6,3.11-3.47,2.95-3.51,2.87-3.55,2.75-3.59,2.63-3.63,2.51-3.67,2.39-3.71,2.27-3.75,2.15-3.75,2.03-3.83,1.95-3.83,1.79-3.91,1.71-3.91,1.55-3.95,1.48-4.03,1.32-4.03,1.24-4.15,1.16-4.19,1-4.19.88-4.27.76-4.31.64-4.3.52-4.38.4-4.42.28-4.42.16-4.5v-4.5l-.08-4.58-.2-4.58-.32-4.62-.48-4.7-.56-4.7-.8-5.38-.92-5.3-1.04-5.18-1.2-5.14-1.28-5.02-1.44-4.94-1.55-4.86-1.67-4.74-1.79-4.7-1.95-4.58-2.03-4.5-2.19-4.38-2.31-4.34-2.43-4.23-2.55-4.15-2.67-4.07-3.23-4.58-3.35-4.46-3.47-4.3-3.51-4.15-3.67-4.03-3.75-3.87-3.83-3.75-3.91-3.59-4.07-3.43-4.11-3.27-4.23-3.15-4.26-2.99-4.42-2.83-4.46-2.67-4.54-2.51-4.62-2.35-5.74-2.63-5.82-2.39-5.94-2.19-5.98-1.91-6.14-1.71-6.22-1.43-6.3-1.2-6.34-.96-6.46-.68-6.5-.48-6.54-.2-6.58.04-6.66.28-6.66.56-6.7.76-6.7,1.04-6.74,1.28-6.7,1.51-6.7,1.79-6.7,1.99-6.62,2.23-6.62,2.47-6.54,2.71-6.5,2.95-6.38,3.15-6.34,3.35-6.22,3.59-6.18,3.83-6.02,3.99-5.94,4.19-5.82,4.38-5.66,4.58-12.52,10.6-.76.48-.84.28-.88.08-.88-.16-11.08-3.39-10.64-3.11-10.24-2.83-9.85-2.59-9.41-2.35-8.97-2.03-8.57-1.79-8.13-1.55-6.86-1.16-6.86-1.04-6.86-.92-6.9-.76-6.86-.68-6.9-.56-6.9-.44-6.86-.28-6.9-.2-6.9-.04-6.9.04-6.9.2-6.9.28-6.94.44-6.9.52-6.94.68-6.9.76-6.94.92-6.94,1.04-6.94,1.16-6.94,1.24-6.94,1.4-6.98,1.51-6.94,1.63-5.18,1.36-5.78,1.59-6.34,1.91-6.94,2.15-7.49,2.47-8.09,2.75-17.9,6.3-.92.2-.96-.04-.88-.28-.8-.48-7.45-5.82-7.21-5.38-7.06-5.06-6.94-4.7-6.82-4.42-6.74-4.11-6.66-3.87-6.66-3.55-6.62-3.31-6.62-3.07-6.62-2.79-6.62-2.55-6.66-2.31-6.66-2.07-6.7-1.79-6.74-1.59-4.74-.96-4.82-.88-4.82-.72-4.9-.64-4.9-.52-4.94-.4-4.98-.28-5.02-.16h-7.57l-7.49.24-7.37.56-7.29.84-7.14,1.12-7.06,1.44-6.9,1.67-6.78,1.95-6.58,2.23-6.46,2.55-6.26,2.79-6.14,3.03-5.94,3.31-2.87,1.79-2.87,1.79-2.79,1.91-2.75,1.95-2.71,1.99-2.67,2.11-3.55,2.91-3.43,3.07-3.35,3.15-3.27,3.31-3.15,3.39-3.07,3.47-2.91,3.63-2.87,3.71-1.99,2.75-1.91,2.79-1.87,2.91-1.79,2.91-1.75,3.03-1.67,3.03-1.59,3.11-1.55,3.15-1.47,3.23-1.4,3.23-1.32,3.31-1.28,3.31-1.2,3.39-1.08,3.39-1.04,3.43-.96,3.47-.88,3.47-.8,3.51-.72,3.47-.6,3.55-.56,3.47-.48,3.51-.36,3.51-.28,3.51-.24,3.51-.12,3.47-.04,3.47.04,3.43.16,3.43.2,3.43.28,3.35.4,3.31.68,4.74.76,4.7.84,4.62.96,4.58,1.04,4.54,1.12,4.46,1.24,4.46,1.32,4.34,1.43,4.34,1.51,4.27,1.59,4.26,1.71,4.15,1.79,4.15,1.91,4.07,1.99,4.03,2.07,3.99,2.47,4.42,2.63,4.42,2.75,4.3,2.83,4.26,2.99,4.19,3.11,4.15,3.23,4.07,3.35,3.99,3.47,3.91,3.63,3.87,3.71,3.79,3.83,3.75,3.99,3.67,4.07,3.59,4.23,3.51,4.34,3.47.48.52.24.64v.68l-.2.64-3.75,7.06-3.63,7.06-3.51,7.1-3.35,7.14-3.19,7.13-3.11,7.22-2.95,7.21-2.79,7.25-2.71,7.25-2.55,7.33-2.39,7.33-2.27,7.33-2.15,7.41-1.99,7.41-1.87,7.45-1.75,7.49-1.59,7.41-1.43,7.45-1.32,7.49-1.2,7.49-1.08,7.53-.92,7.57-.8,7.61-.68,7.61-.52,7.65-.4,7.69-.28,7.73-.16,7.73v7.77l.12,7.77.24,7.85.4,7.85.36,5.54.44,5.54.56,5.5.64,5.5.76,5.46c.55,1.5,1.1,3.01,1.66,4.51.48.9,1.51,2.77,3,5,7.75,11.56,18.4,16.93,22,20,98.16,83.78,185.32,113.42,250,124,78.99,12.93,210.87,11.59,210.88,11.59l.32-.08.24-.2.16-.32v-.32l-.08-.16-.6-1.12-.4-.56-.52-.44-.6-.32-.68-.16-7.89-.84-7.73-.88-7.57-1-7.49-1.08-9.57-1.51-9.65-1.71-10.01-1.91-10.56-2.19-10.96-2.43-12.36-2.83-35.16-8.45-5.02-1.24-12.12-3.07-12-3.31-11.88-3.55-11.8-3.79-11.68-3.99-11.6-4.26-11.48-4.5-11.4-4.7-10.2-4.5-10.08-4.66-10.04-4.86-9.97-5.02-9.85-5.26-9.77-5.42-9.73-5.66-9.61-5.82-4.46-2.79-4.38-2.91-4.34-2.91-4.3-2.99-4.26-3.07-4.19-3.15-4.15-3.19-4.07-3.23-3.99-3.31-3.95-3.35-3.87-3.39-3.79-3.47-3.71-3.47-3.63-3.55-3.55-3.59-3.47-3.59-3.39-3.67-3.27-3.71-3.23-3.71-3.11-3.75-3.03-3.79-2.95-3.79-2.83-3.87-2.75-3.87-2.63-3.87-2.59-3.91-2.43-3.95-2.39-3.95-2.27-3.99-2.15-3.99-2.07-3.99-1.95-4.03-.32-.48-.4-.36-.52-.24-.52-.12-.56.04-.52.2-.48.32-.36.44-.2.56-.08.6,1.95,49.23-.04.24-.16.12-.24.08-.2-.08-.16-.16-4.54-8.29-3.91-7.33-3.23-6.34-2.55-5.34-1.95-4.58-1.83-4.74-1.63-4.9-1.47-5.06-1.32-5.22-1.16-5.34-1-5.58-.84-5.7-.64-5.9-.52-6.02-.36-6.26-.2-6.46-.04-6.66.12-6.86.28-7.13.44-7.45.48-6.14.56-6.14.76-7.37.92-7.33,1.08-7.37,1.16-7.33,1.32-7.33,1.43-7.29,1.59-7.29,1.67-7.29,1.83-7.29,1.99-7.25,2.07-7.25,2.23-7.21,2.35-7.21,2.47-7.21,2.63-7.22,2.75-7.17,2.07-5.1,2.19-5.26,2.39-5.38,2.51-5.5,2.67-5.62,2.75-5.66,2.95-5.74,3.03-5.74,3.15-5.82,3.19-5.82,3.31-5.74,3.35-5.66,3.35-5.54,3.39-5.38,3.31-5.18,3.27-4.86,3.51-5.06,3.55-5.02,3.55-4.86,3.67-4.82,3.67-4.74,3.71-4.62,3.79-4.54,3.83-4.5,3.87-4.38,3.95-4.34,3.99-4.23,4.03-4.15,4.11-4.11,4.19-4.03,4.19-3.95,4.3-3.87,5.46-4.78,5.54-4.66,5.66-4.54,5.78-4.42,5.86-4.34,5.98-4.27,6.06-4.11,6.22-4.07,6.26-3.91,6.3-3.79,6.38-3.63,6.42-3.55,6.46-3.39,6.54-3.27,6.62-3.11,6.66-2.99,8.93-3.83,9.09-3.55,9.17-3.35,9.25-3.11,9.37-2.91,9.49-2.63,9.57-2.43,9.69-2.19,9.77-1.95,9.89-1.71,9.97-1.47,10.08-1.28,10.16-1.04,10.28-.8,10.4-.56,10.48-.36,10.92-.12,10.8.12,10.76.32,10.68.56,10.56.8,10.52,1.04,10.4,1.28,10.32,1.47,10.24,1.71,10.2,1.95,10.08,2.19,10,2.39,9.93,2.63,9.85,2.87,9.77,3.11,9.65,3.31,10.6,3.95,10.44,4.23,10.36,4.46,10.28,4.78,10.16,5.06,10.04,5.34,9.97,5.58,9.89,5.9,7.53,4.74,7.41,4.82,7.29,4.94,7.13,5.06,7.02,5.18,6.9,5.26,6.78,5.42,6.62,5.5,6.5,5.62,6.34,5.74,6.26,5.82,6.1,5.98,5.94,6.06,5.86,6.18,5.7,6.3,5.58,6.42,4.15,4.9,4.07,5.02,3.99,5.06,3.91,5.1,3.87,5.22,3.75,5.26,3.71,5.3,3.59,5.38,3.55,5.46,3.47,5.5,3.39,5.58,3.31,5.66,3.23,5.7,3.15,5.78,3.11,5.82,2.99,5.9,3.31,6.78,3.19,6.78,3.07,6.86,2.95,6.86,2.79,6.86,2.63,6.9,2.55,6.9,2.35,6.9,2.23,6.9,2.11,6.86,1.95,6.94,1.79,6.86,1.67,6.86,1.51,6.82,1.36,6.86,1.2,6.78,1.08,6.74.92,6.7.76,6.7.64,6.66.48,6.62.32,6.54.16,6.54.04,6.5-.12,6.42-.28,6.42-.44,6.3-.56,6.34-.72,6.22-.88,6.18-1.04,6.14-1.16,6.1-2.67,12.4-1.28,5.38-1.28,5.02-1.32,4.7-1.32,4.46-1.4,4.22-1.4,4.07-1.51,3.95-1.59,3.79-1.67,3.63-1.75,3.47-1.83,3.43-1.91,3.27-2.03,3.23-2.15,3.11-1.83,2.47-1.91,2.47-1.99,2.39-2.11,2.35-2.15,2.31-2.23,2.31-2.35,2.23-2.43,2.19-.24.16-.28.04-.44-.12-.32-.32-.08-.44.16-.44,10.2-13.51,1.28-1.91,1.08-1.99,2.07-4.46,5.34-11.48,3.59-7.93,2.95-6.94,2.47-6.18,2.15-6.02,1.83-5.78,1.55-5.66,1.24-5.62.76-4.03.6-4.11.52-4.19.36-4.3.12-3.55-.12-3.31-.4-3.03-.68-2.75-.12-.28-.24-.28-.24-.16-.32-.12h-.32l-.32.08-.28.12-.2.24-.2.24-.08.32-1.04,5.58-1.24,5.5-1.4,5.42-1.59,5.34-1.71,5.26-1.91,5.18-2.11,5.1-2.27,5.02-2.19,4.46-2.35,4.42-2.51,4.34-2.63,4.3-2.75,4.23-2.95,4.15-3.07,4.07-3.19,4.03-5.46,6.46-5.66,6.34-5.9,6.26-6.1,6.18-6.34,6.06-6.58,6.02-6.78,5.9-7.05,5.86-7.29,5.78-7.53,5.74-7.81,5.7-8.05,5.62-8.41,5.62-8.69,5.58-9.01,5.58-9.41,5.62-7.89,4.54-8.01,4.38-8.13,4.27-8.29,4.11-8.37,4.03-8.49,3.83-8.65,3.75-8.73,3.59-8.89,3.43-9.01,3.35-9.09,3.15-9.25,3.07-9.37,2.91-9.49,2.79-9.61,2.63-9.73,2.51-8.73,2.11-7.61,1.75-6.58,1.36-5.5.96-.4.16-.32.28-.2.36-.04.44.28.44.4.48.52.4.6.24.6.08s280.14-42.6,312.89-78.1c1.29-1.4,2.88-.93,3.09-1.1l-.28-.41-.08-.64.2-.64.24-.28,6.5-6.18,5.94-6.1,2.79-2.99,2.67-2.99,2.51-2.99,2.39-2.95,2.27-2.91,2.15-2.91,1.99-2.87,1.91-2.87,1.75-2.83,1.59-2.83,1.51-2.79,1.36-2.79,1.79-3.95,1.71-3.99,1.63-4.07,1.55-4.07,1.47-4.19,1.4-4.19,1.28-4.26,1.24-4.31,1.16-4.34,1.04-4.38.96-4.46.92-4.46.8-4.54.72-4.58.64-4.66.56-4.66.48-4.74.4-4.78.28-4.82.24-4.86.12-4.9.08-4.94-.04-5.02ZM275.4,85.62l-.28.84-.52.76-.68.6-.8.44-.88.2-18.85,1.83-1.59.08-1.59-.12-1.55-.28-1.55-.44-1.47-.6-1.4-.76-1.32-.88-1.24-1.04-2.75-2.43-3.31-2.55-3.79-2.75-4.34-2.87-4.86-3.07-5.38-3.19-5.9-3.35-6.42-3.51-4.34-2.23-4.34-1.95-4.34-1.67-4.34-1.43-4.34-1.2-4.3-.96-4.34-.68-4.34-.4-4.23-.24-4.15-.16-4.07-.04h-3.99l-3.91.12-3.83.2-3.71.28-3.63.36-3.51.44-3.43.56-3.31.6-3.19.72-3.11.76-2.99.88-2.95.96-2.79,1.04-3.23,1.32-3.19,1.36-3.11,1.44-3.03,1.51-2.99,1.55-2.91,1.63-2.87,1.67-2.79,1.75-2.75,1.79-2.67,1.87-2.59,1.95-2.55,1.99-2.51,2.03-2.39,2.15-2.39,2.15-2.27,2.27-2.99,3.11-2.87,3.19-2.79,3.35-2.63,3.43-2.55,3.55-2.43,3.67-2.31,3.79-2.19,3.91-2.11,3.99-1.95,4.11-1.87,4.23-1.75,4.34-1.63,4.42-1.55,4.58-1.4,4.66-1.32,4.78-.36,1.59-.32,2.11-.56,5.58-.48,7.45-.36,9.37-.08.32-.16.28-.28.2-.32.08h-.04l-.32-.04-.24-.16-.2-.24-.08-.28-.36-4.42-.28-4.58-.12-4.78-.04-4.94.08-5.1.2-5.3.32-5.46.44-5.62.56-5.18.76-5.06,1-4.98,1.16-4.82,1.4-4.74,1.63-4.62,1.79-4.54,2.03-4.38,2.03-3.95,2.11-3.83,2.27-3.79,2.39-3.71,3.55-4.98,3.75-4.78,4.03-4.66,4.23-4.5,4.5-4.34,4.7-4.19,4.98-3.99,5.18-3.87,1.24-.84,1.36-.76,3.07-1.51,3.63-1.47,4.15-1.4,4.58-1.32,5.14-1.24,5.66-1.2,7.17-1.36,3.35-.64,4.94-.88,4.9-.68,4.9-.52,4.86-.36,4.86-.16h4.86l4.82.16,4.82.32,3.63.36,3.63.48,3.63.56,3.59.68,3.59.76,3.59.84,3.59.96,3.55,1.04,3.55,1.16,3.55,1.24,3.55,1.36,3.55,1.43,3.51,1.55,3.51,1.63,3.51,1.71,3.51,1.83,12.52,6.9,13.03,7.45,13.55,8.01,14.03,8.57.64.52.52.64.36.84.16.88-.08.92ZM870.3,255.9l-.16,1.03-.25.91-.33.76-.41.58-.46.37-.5.16-.52-.07-.52-.29-.5-.5-.46-.69-.4-.86-.33-.99-.24-1.08-.15-1.13-.05-1.14.06-1.11.16-1.03.25-.91.34-.76.41-.58.46-.37.5-.16.52.07.52.29.5.5.46.69.4.86.33.99.24,1.08.15,1.13.05,1.14-.05,1.11ZM877.02,112.77l-2.75-4.98-2.91-4.82-3.11-4.66-3.27-4.46-3.47-4.31-3.63-4.11-3.83-3.95-3.99-3.75-4.11-3.55-4.31-3.35-4.07-2.91-4.23-2.71-4.31-2.51-4.42-2.39-4.54-2.15-4.66-2.03-4.74-1.79-4.82-1.59-4.94-1.43-5.02-1.24-5.1-1.04-5.18-.88-5.22-.64-5.3-.48-5.38-.24-5.42-.08-3.19.04-3.15.16-3.11.24-3.07.32-3.03.4-2.95.48-2.91.6-2.87.64-2.79.76-2.75.84-2.75.92-2.67,1-2.59,1.08-2.59,1.2-2.51,1.24-2.47,1.36-2.59,1.55-2.55,1.63-2.51,1.75-2.43,1.83-9.37,7.25-3.11,2.27-2.03,1.43-1.32.72-1.4.52-1.47.32-1.47.12h-30.49l-.76-.08-.72-.24-.8-.44-.64-.68-.48-.76-.24-.88-.04-.92.16-.92.4-.8.6-.72,4.66-4.15,4.94-3.95,5.14-3.75,5.42-3.55,5.7-3.35,5.9-3.15,6.18-2.95,6.42-2.75,7.85-3.07,7.69-2.71,7.49-2.39,7.33-2.07,7.14-1.75,7.06-1.43,6.86-1.12,6.74-.8,6.62-.48,6.46-.16,6.38.12,3.11.2,3.11.28,3.07.36,3.07.44,3.03.52,2.99.6,2.95.68,2.95.72,2.91.84,2.87.92,5.06,1.79,4.9,2.03,4.86,2.31,4.78,2.55,4.74,2.79,4.58,3.03,4.58,3.31,4.46,3.55,4.11,3.55,3.95,3.67,3.71,3.79,3.55,3.91,3.35,4.03,3.15,4.15,2.99,4.27,2.75,4.34,1.87,3.27,1.79,3.27,1.67,3.39,1.59,3.43,1.47,3.47,1.4,3.59,1.28,3.59,1.16,3.67,1.08,3.75.96,3.79.88,3.87.76,3.91.68,3.99.56,4.07.48,4.11.36,4.15-.04.28-.12.28-.24.16-.28.12-.28.04h-.36l-.32-.12-.28-.28-.16-.32-1.51-5.78-1.71-5.66-1.91-5.54-2.11-5.42-2.31-5.26-2.51-5.1Z"/>
    <path class="cls-5" d="M849.35,442.77l-.28-3.99-.4-4.03-.56-4.03-.68-4.07-.8-4.07-.96-4.07-1.08-4.11-1.2-4.03-1.36-4.07-1.47-3.99-1.55-3.95-1.71-3.91-1.79-3.83-1.91-3.75-1.99-3.63-2.11-3.55-3.91-6.18-4.07-6.06-4.23-5.86-4.38-5.74-4.5-5.62-4.66-5.42-4.82-5.3-4.94-5.14-3.19-3.15-3.23-3.07-3.31-3.03-3.35-2.99-3.43-2.91-3.47-2.83-3.55-2.79-3.59-2.75-4.07-2.99-4.19-2.87-4.27-2.79-4.31-2.67-4.34-2.55-4.34-2.39-4.46-2.31-4.42-2.11-4.42-2.03-4.46-1.83-4.46-1.75-4.42-1.55-4.42-1.43-4.38-1.28-4.42-1.12-4.34-.96-4.31-.84-4.23-.64-4.23-.52-4.15-.32-4.11-.2-4.11-.04-4.03.08-3.99.28-3.91.44-3.87.56-3.79.72-3.75.88-3.67,1.04-3.63,1.2-3.55,1.32-3.51,1.51-4.58,2.23-3.91,2.19-3.75,2.35-3.59,2.55-3.39,2.67-3.23,2.87-3.03,2.99-2.83,3.19-2.63,3.31-1.79,2.47-1.63,2.51-1.59,2.63-1.47,2.67-1.36,2.75-1.24,2.79-1.16,2.87-1,2.95-.96,2.99-.8,3.03-.72,3.11-.6,3.11-.48,3.19-.36,3.19-.24,3.27-.12,3.27-.04,3.35.12,3.35.2,3.35.32,3.35.44,3.39.56,3.39.68,3.39.76,3.39.92,3.35,1,3.35,1.12,3.35,1.2,3.31,1.32,3.27,1.43,3.23,1.51,3.23,1.63,3.15,2.23,4.23,2.39,4.19,2.47,4.15,2.59,4.15,2.75,4.15,2.83,4.11,2.95,4.07,3.11,4.07,3.19,4.07,3.35,4.03,3.43,3.99,3.59,3.99,3.67,3.99,3.83,3.95,3.91,3.91,4.07,3.91,3.47,3.23,3.47,3.11,3.51,3.03,3.51,2.95,3.55,2.83,3.59,2.75,3.63,2.63,3.63,2.55,3.67,2.47,3.67,2.35,3.71,2.23,3.75,2.19,3.75,2.07,3.79,1.95,3.83,1.87,3.83,1.79,3.71,1.83,3.83,1.71,3.87,1.63,3.99,1.47,4.03,1.4,4.07,1.24,4.11,1.12,4.15,1,4.11.88,4.15.72,4.11.6,4.15.44,4.07.32,4.03.16,4.03.04,3.95-.12,3.83-.24,3.83-.4,3.71-.52,3.67-.68,3.55-.76,3.47-.96,3.39-1.04,3.35-1.2,3.19-1.32,3.15-1.44,3.03-1.55,2.95-1.71,2.79-1.83,2.71-1.95,2.63-2.07,2.51-2.19,2.55-2.47,2.47-2.63,2.31-2.79,2.19-2.91,1.87-2.75,1.71-2.83,1.59-2.95,1.48-2.99,1.36-3.15,1.24-3.19,1.08-3.31.96-3.35.8-3.47.72-3.51.56-3.63.4-3.63.28-3.75.16-3.79v-3.83l-.12-3.87ZM626.69,371.06l.16-.56.2-.44-.36,1Z"/>
    <polygon class="cls-1" points="428.26 366.12 428.14 370.27 427.87 374.41 427.43 378.6 426.87 382.82 426.15 387.05 425.27 391.31 424.24 395.58 423.08 399.88 421.77 404.19 420.33 408.49 418.74 412.8 416.58 418.06 414.23 423.32 411.68 428.5 408.93 433.68 405.98 438.83 402.83 443.89 399.52 448.91 396.02 453.85 392.35 458.72 388.52 463.46 384.54 468.16 380.39 472.71 376.09 477.17 371.66 481.48 367.12 485.7 362.41 489.77 358.31 493.16 354.08 496.43 349.82 499.57 345.47 502.64 341.09 505.55 336.58 508.34 332.08 511.05 327.54 513.57 322.91 516 318.25 518.27 313.58 520.38 308.88 522.37 304.18 524.21 299.47 525.88 294.73 527.44 289.99 528.83 285.92 529.91 281.86 530.86 277.79 531.7 273.72 532.42 269.7 533.06 265.71 533.54 261.73 533.89 257.78 534.17 253.87 534.29 250.01 534.33 246.18 534.21 242.39 533.97 238.65 533.66 234.98 533.18 231.35 532.62 227.76 531.9 224.26 531.06 220.83 530.15 217.44 529.11 214.13 527.92 210.9 526.64 207.75 525.24 204.68 523.77 201.7 522.14 198.83 520.42 196 518.59 193.28 516.67 190.65 514.6 188.14 512.49 185.71 510.26 183.4 507.91 181.17 505.47 179.17 503.12 177.3 500.69 175.27 497.82 173.35 494.87 171.6 491.8 169.93 488.65 168.41 485.42 167.06 482.08 165.78 478.69 164.7 475.18 163.71 471.63 162.87 468 162.19 464.34 161.64 460.59 161.24 456.76 160.96 452.9 160.84 448.99 160.84 445.04 161 440.78 161.32 436.47 161.83 432.13 162.47 427.79 163.27 423.4 164.23 418.98 165.38 414.55 166.66 410.09 168.09 405.66 169.65 401.2 171.4 396.77 173.27 392.35 175.31 387.92 177.46 383.54 179.81 379.19 182.24 374.85 185.83 368.95 189.7 363.13 193.76 357.43 198.07 351.81 202.61 346.35 207.36 341.01 212.3 335.79 217.4 330.76 222.7 325.9 228.16 321.2 233.78 316.73 239.56 312.43 245.42 308.36 251.4 304.5 257.5 300.91 263.68 297.52 268.14 295.25 272.61 293.14 277.11 291.14 281.66 289.27 286.16 287.56 290.74 285.96 295.29 284.49 299.83 283.17 304.38 282.01 308.92 280.98 313.46 280.1 317.93 279.38 322.43 278.79 326.86 278.35 331.28 278.07 335.63 277.91 339.89 277.91 344.16 278.07 348.3 278.39 352.41 278.83 356.47 279.42 360.42 280.14 364.33 281.06 368.15 282.05 371.9 283.25 375.53 284.53 379.08 286 382.54 287.6 385.89 289.31 389.12 291.14 392.27 293.14 395.3 295.25 398.65 297.84 401.88 300.63 404.91 303.54 407.78 306.65 409.53 308.72 411.2 310.83 412.84 313.03 414.35 315.26 415.83 317.57 417.22 319.96 418.5 322.35 419.73 324.82 420.89 327.38 421.97 329.93 422.92 332.56 423.84 335.23 424.68 337.94 425.39 340.73 426.07 343.52 426.63 346.35 427.27 350.18 427.75 354.08 428.06 358.07 428.22 362.05 428.26 366.12"/>
    <path class="cls-3" d="M368.79,546.85v-.92l.2-.88.44-.76.6-.68.76-.48.84-.28.92-.04.88.16h0l.76.36.64.52,9.93,10.08,8.85,8.69,7.73,7.37,6.62,6.02,3.03,2.59,3.15,2.47,3.19,2.27,3.23,2.11,3.27,1.95,3.27,1.79,3.27,1.55,3.23,1.4,3.23,1.16,3.15.96,3.15.76,3.11.56,3.07.36,2.99.12,2.99-.04,2.91-.28,5.3-.76,5.26-.88,5.18-1.04,5.18-1.16,5.1-1.28,5.06-1.43,5.02-1.55,4.94-1.71h0l1.95-.72,1.99-.8,1.87-.92,1.71-1,1.59-1.08,1.44-1.16,1.32-1.24,1.16-1.36,1-1.43h0l1.04-1.87.84-1.99.64-2.11.44-2.27.24-2.39v-2.51l-.2-2.63-.4-2.79-.6-2.47-.36-1.12-.4-1-.48-.92-.56-.88-.6-.8-.68-.72-1.08-.92-1.2-.8-1.36-.68-1.55-.56-1.71-.48-1.99-.36-2.23-.32-2.83-.28-4.11-.4-3.99-.52-3.83-.64-3.75-.76-3.59-.88-3.51-1-3.35-1.12-3.23-1.2-3.11-1.36-2.95-1.43-2.87-1.59-2.71-1.67-2.63-1.79-2.47-1.91-2.35-2.03-2.23-2.15-1.95-2.19-1.75-2.35-1.47-2.47-1.24-2.59-.8-2.15-.64-2.23-.48-2.27-.28-2.35-.12-2.35.04-2.35.24-2.43.4-2.39.6-2.43.76-2.39.92-2.35,1.08-2.35,1.24-2.27,1.4-2.23,1.51-2.11,1.67-2.07,1.71-1.91,1.83-1.79,1.91-1.79,2.03-1.67,2.15-1.59,2.19-1.55,2.35-1.47,2.39-1.4,2.55-1.32,2.59-1.28,2.75-1.16,2.79-1.08,2.87-1.04,2.99-.96,3.07-.84,3.15-.8,3.31-.72,3.39-.64,3.43-.56,3.51-.48,3.59-.4,3.71-.32,3.67-.2,3.79-.16,3.83-.04,3.87.04,3.91.12,3.87.2,3.91.32,3.91.36,3.87.44,3.79.56,4.82.88,5.02,1.2,5.06,1.51,5.02,1.71,4.82,1.95,4.62,2.15,4.34,2.31,4.11,2.47,3.67,2.51,3.31,2.67,2.99,2.71,1.36,1.4,1.28,1.44,1.2,1.47,1.08,1.47,1,1.47.92,1.51.8,1.51.72,1.55.64,1.55.52,1.55.88,3.19.64,3.15.36,3.03.16,2.95-.08,2.87-.36,2.83-.56,2.67-.8,2.63-.6,1.47-.64,1.48-.76,1.43-.8,1.36-.88,1.4-1,1.32-2.15,2.55-2.51,2.43-2.79,2.31-3.11,2.19-3.39,2.07-3.75,1.95-4.03,1.79-4.3,1.67-4.58,1.47-4.86,1.4-5.06,1.16-5.22,1.04-5.42.84-.68.12-.68.24-.64.28-.6.36-.56.44-.48.48-.48.56-.36.6-1.43,2.83-1.12,2.75-.88,2.59-.6,2.59-.28,2.43-.04,2.39.24,2.27.52,2.19.56,1.55.68,1.51.88,1.47.96,1.4,1.16,1.36,1.32,1.32,1.4,1.28,1.59,1.28,1.75,1.2,1.91,1.2,2.03,1.12,2.19,1.12,2.35,1.08,2.55,1.04,2.75,1.04,2.91,1.04,4.27,1.32,4.23,1.04,4.15.76,4.15.52,4.11.24h4.11l3.99-.28,3.99-.52,2.23-.44,2.23-.48,2.23-.6,2.19-.68,2.19-.76,2.15-.84,2.15-.96,2.15-1,2.11-1.12,2.11-1.2,2.07-1.24,2.03-1.36,4.11-2.95,3.99-3.27,3.95-3.63,3.83-3.95,3.79-4.27,3.67-4.58,3.55-4.86,3.43-5.18,3.35-5.46,3.19-5.7.68-1,.92-.84,1.04-.6,1.2-.36,1.2-.08,1.24.16,1.12.44,1.04.72.84.88.88,1.43.68,1.67.44,1.79.24,2.03v2.15l-.24,2.39-.44,2.55-.68,2.71-.92,2.91-1.12,3.07-1.36,3.23-1.55,3.35-1.79,3.51-1.99,3.59-2.11,3.63-2.23,3.51-4.54,6.66-4.94,6.66-5.3,6.7-5.58,6.58-5.82,6.42-6.02,6.18-6.1,5.9-6.22,5.58-6.14,5.14-6.14,4.78-6.06,4.3-3.03,2.03-3.03,1.91-2.95,1.75-2.99,1.71-2.91,1.55-2.95,1.44-2.83,1.32-2.87,1.24-2.79,1.08-2.79,1-5.66,1.75-5.62,1.51-5.62,1.24-5.62,1-5.66.72-5.62.48-5.62.2-5.58-.04-6.06-.32-5.98-.64-5.98-.92-5.98-1.24-5.98-1.51-5.94-1.79-5.94-2.11-5.9-2.39-5.9-2.71-5.86-2.99-5.82-3.27-5.82-3.55-5.78-3.87-5.74-4.15-5.7-4.42-5.66-4.7-7.85-6.9-7.61-7.02-7.37-7.21-7.13-7.29-6.94-7.45-6.74-7.57-6.46-7.77-6.26-7.85-.68-1.04-.56-1.08-.44-1.2-.24-1.2-2.55-17.46M523.81,491.32l5.14-.2,5.02-.4,4.98-.6,4.86-.8,4.74-1,4.66-1.2,4.58-1.4,4.5-1.63.48-.24.4-.32.28-.44.24-.48.08-.52-.04-.48-.12-.52-.28-.44-.32-.4-1.71-1.43-1.79-1.32-1.95-1.28-1.99-1.12-2.15-1.08-2.27-1-2.35-.88-2.47-.8-2.59-.68-2.71-.6-2.75-.52-2.87-.4-2.95-.32-2.99-.2-3.03-.08h-3.07l-3.03.08-3.03.24-2.99.28-2.91.44-2.87.52-2.71.6-2.71.68-2.55.8-2.43.92-2.31.96-2.27,1.08-2.07,1.12-1.99,1.24-1.87,1.32-1.75,1.4-1.67,1.47-.32.4-.24.48-.12.48v.52l.12.52.2.48.32.4.4.32h0l.52.24,4.54,1.43,4.62,1.24,4.7,1.04,4.82.8,4.86.64,4.98.4,5.06.2,5.14.04M592.97,614.21l-1.95-.84-1.95-.64-1.99-.56-1.95-.4-2.95-.4-3.03-.08-3.11.2-3.31.44-3.35.72-3.75,1-4.15,1.32-5.86,2.03-8.13,2.75-5.7,1.67-5.66,1.4-5.62,1.04-5.58.72-5.54.44-5.5.08-5.46-.2-2.71-.24-2.71-.28h0l-4.42-.68-4.38-.92-4.34-1.08-4.34-1.32-4.34-1.55-4.27-1.71-4.27-1.99-4.23-2.15-.84-.4-1-.36-1-.24-1.04-.12-1.08-.04-1.04.12-1.04.2-1,.32-.96.4-.96.52-.88.64-.8.72-.76.76-.64.88-.6.92-.48.96-.36,1.04-.12.4h0l-.04.8.04.76.2.84.36.84.48.88.64.92.76.92.92.96,2.27,2.19,2.31,2.11,2.31,2.03,2.39,1.91,2.39,1.87,2.39,1.75,2.43,1.67,2.47,1.59,2.51,1.47,2.51,1.43,2.55,1.32,2.59,1.24,2.59,1.16,2.63,1.08,2.67.96,2.67.92h0l2.63.76,2.63.72,2.67.6,2.71.56,2.71.44,2.71.4,2.79.28,2.79.24,2.83.12,2.83.04h2.87l2.87-.12,5.86-.44,5.98-.8,4.34-.8,4.5-1.12,4.5-1.36,4.46-1.59,4.38-1.79,4.23-1.99,4.03-2.15,3.79-2.27,3.43-2.39,3.19-2.51,2.87-2.55,2.55-2.71,2.27-2.75,1.95-2.83,1.59-2.87.68-1.47.6-1.48.2-.76.08-.76-.12-.8-.24-.72-.36-.68-.48-.64-.6-.48-.68-.4h0Z"/>
    <polygon class="cls-6" points="712.31 369.75 712.15 372.66 711.75 375.53 711.04 378.32 710.08 381.07 708.84 383.66 707.33 386.17 705.61 388.48 703.66 390.63 701.51 392.59 699.2 394.3 696.69 395.82 694.09 397.05 691.34 398.01 688.55 398.73 685.68 399.13 682.77 399.28 679.86 399.13 676.99 398.73 674.2 398.01 671.45 397.05 668.86 395.82 666.35 394.3 664.04 392.59 661.89 390.63 659.93 388.48 658.22 386.17 656.71 383.66 655.47 381.07 654.51 378.32 653.8 375.53 653.4 372.66 653.24 369.75 653.4 366.84 653.8 363.97 654.51 361.18 655.47 358.43 656.71 355.84 658.22 353.33 659.93 351.01 661.89 348.86 664.04 346.91 666.35 345.19 668.86 343.68 671.45 342.44 674.2 341.49 676.99 340.77 679.86 340.37 682.77 340.21 685.68 340.37 688.55 340.77 691.34 341.49 694.09 342.44 696.69 343.68 699.2 345.19 701.51 346.91 703.66 348.86 705.61 351.01 707.33 353.33 708.84 355.84 710.08 358.43 711.04 361.18 711.75 363.97 712.15 366.84 712.31 369.75 712.31 369.75"/>
    <polygon class="cls-6" points="313.28 371.44 313.5 368.62 314.03 365.84 314.84 363.11 315.93 360.48 317.29 357.96 318.92 355.58 320.78 353.36 322.87 351.32 325.16 349.48 327.64 347.87 330.27 346.49 333.03 345.35 335.91 344.48 338.86 343.88 341.86 343.55 344.88 343.49 347.9 343.71 350.88 344.21 353.79 344.98 356.61 346.01 359.31 347.3 361.86 348.82 364.24 350.58 366.43 352.54 368.4 354.69 370.13 357.01 371.62 359.48 372.84 362.07 373.79 364.76 374.44 367.52 374.81 370.33 374.88 373.16 374.88 373.16 374.65 375.98 374.13 378.76 373.32 381.48 372.23 384.12 370.86 386.64 369.24 389.02 367.38 391.24 365.29 393.28 363 395.11 360.52 396.73 357.89 398.11 355.12 399.24 352.25 400.12 349.3 400.72 346.3 401.05 343.27 401.11 340.26 400.88 337.28 400.39 334.37 399.62 331.55 398.58 328.85 397.3 326.3 395.77 323.92 394.02 321.73 392.06 319.76 389.91 318.02 387.59 316.53 385.12 315.31 382.53 314.37 379.84 313.71 377.08 313.35 374.27 313.28 371.44 313.28 371.44"/>
    <polygon class="cls-4" points="688.08 474.22 685.21 473.51 682.38 472.67 679.58 471.67 676.83 470.6 676.83 470.6 676.83 470.6 674.24 469.4 671.73 468.12 669.22 466.69 666.79 465.17 664.4 463.5 662.05 461.75 659.73 459.83 657.5 457.84 657.26 457.44 657.22 456.96 657.42 456.52 657.86 456.25 658.34 456.21 662.41 456.88 666.39 457.4 670.26 457.8 674 458.04 677.71 458.12 681.3 458.08 684.81 457.88 688.23 457.52 691.58 457.04 694.77 456.41 697.96 455.61 701.03 454.65 703.98 453.57 706.85 452.34 709.64 450.98 712.39 449.43 715.38 447.52 718.25 445.4 721.04 443.05 723.67 440.54 725.54 438.55 727.3 436.51 728.89 434.4 730.41 432.29 731.72 430.1 732.96 427.86 734.03 425.55 734.99 423.24 734.99 423.24 735.83 420.77 736.55 418.26 737.1 415.71 737.5 413.08 737.78 410.45 737.94 407.7 737.94 404.94 737.78 402.11 737.66 400.72 737.66 399.56 737.78 398.53 737.98 397.73 738.3 397.21 738.82 396.93 739.38 396.89 739.93 397.13 740.21 397.49 741.61 400 742.84 402.55 743.96 405.1 744.96 407.62 745.83 410.21 746.55 412.76 747.15 415.35 747.59 417.9 747.91 420.49 748.11 423.04 748.19 425.59 748.11 428.1 747.87 430.62 747.51 433.09 747.03 435.56 746.39 437.99 745.75 440.1 745 442.17 744.16 444.21 743.2 446.2 742.13 448.15 741.01 450.03 739.77 451.9 738.46 453.65 737.02 455.41 735.55 457.08 733.96 458.72 732.32 460.27 730.61 461.75 728.77 463.14 726.9 464.5 724.99 465.77 722.99 466.93 720.92 468.04 718.81 469.04 716.66 470 714.46 470.83 712.19 471.59 709.92 472.27 707.57 472.87 705.22 473.35 702.82 473.74 700.43 474.06 698 474.26 695.53 474.42 693.06 474.42 690.59 474.38 688.08 474.22 688.08 474.22"/>
    <polygon class="cls-4" points="276.71 409.73 278.59 415.43 281.1 424.04 281.97 426.87 282.97 429.62 284.13 432.29 285.4 434.84 286.8 437.31 288.35 439.7 289.99 441.98 291.74 444.17 293.45 446.04 295.25 447.8 297.12 449.51 299.11 451.1 301.19 452.62 303.3 454.05 305.57 455.37 307.88 456.6 310.28 457.72 312.71 458.72 315.22 459.63 317.81 460.47 320.44 461.15 323.11 461.75 325.86 462.22 328.61 462.58 331.44 462.82 334.27 462.94 337.14 462.98 339.97 462.86 342.84 462.66 345.71 462.34 348.58 461.91 351.41 461.35 354.2 460.67 356.95 459.91 359.7 459.04 362.41 458.04 365.08 456.92 367.68 455.73 370.23 454.45 372.7 453.06 373.02 452.94 373.38 452.9 373.69 452.98 373.97 453.14 374.17 453.38 374.33 453.65 374.41 453.93 374.37 454.25 374.25 454.57 374.09 454.81 371.38 457.6 368.59 460.15 365.76 462.54 362.81 464.78 359.78 466.77 356.71 468.6 353.52 470.24 350.3 471.67 350.3 471.67 350.3 471.67 350.3 471.67 346.55 473.11 342.68 474.26 338.74 475.18 334.67 475.86 331.44 476.26 328.33 476.53 325.3 476.69 322.31 476.73 319.44 476.65 316.65 476.45 313.9 476.18 311.27 475.78 308.72 475.22 306.25 474.58 303.86 473.82 301.55 472.95 299.31 471.99 297.16 470.87 295.09 469.68 293.1 468.32 293.1 468.32 293.1 468.32 293.1 468.32 290.94 466.65 288.87 464.86 286.88 462.86 285 460.75 283.29 458.44 281.62 456.01 280.1 453.46 278.67 450.71 277.35 447.8 276.23 444.81 275.16 441.14 274.36 437.39 273.8 433.49 273.56 429.38 273.52 425.11 273.8 420.53 274.28 415.59 275.08 409.93 275.24 409.53 275.6 409.25 276.04 409.17 276.47 409.37 276.71 409.73 276.71 409.73"/>
  </g>
</svg>