<svg width="25" height="25" viewBox="0 0 25 25" fill="none" xmlns="http://www.w3.org/2000/svg">
<g clip-path="url(#clip0_2024_315)">
<path d="M10.6445 23.0058H5.60205C4.81716 23.0034 4.06496 22.6913 3.50895 22.1373C2.95295 21.5833 2.63808 20.8322 2.63281 20.0474V10.021C2.63438 9.75087 2.69502 9.48436 2.8105 9.24017C2.92598 8.99598 3.09348 8.78001 3.30127 8.60741L4.18897 7.95018C4.34584 7.78277 4.43945 7.5659 4.45368 7.33691C4.4679 7.10793 4.40186 6.88114 4.26691 6.6956C4.13195 6.51005 3.93654 6.37736 3.71431 6.32036C3.49207 6.26335 3.25691 6.28561 3.04932 6.38329L2.13965 7.06249C1.68675 7.41287 1.3186 7.86079 1.06256 8.37297C0.80651 8.88515 0.669138 9.44843 0.660645 10.021V20.0581C0.663353 21.3679 1.18482 22.6232 2.11091 23.5494C3.037 24.4756 4.2923 24.9972 5.60205 25H10.6445C10.7759 25.0029 10.9065 24.9796 11.0287 24.9313C11.1509 24.8831 11.2622 24.8109 11.3561 24.7191C11.45 24.6272 11.5247 24.5175 11.5756 24.3964C11.6266 24.2753 11.6528 24.1453 11.6528 24.0139C11.6528 23.8825 11.6266 23.7525 11.5756 23.6314C11.5247 23.5103 11.45 23.4006 11.3561 23.3088C11.2622 23.2169 11.1509 23.1447 11.0287 23.0965C10.9065 23.0482 10.7759 23.0249 10.6445 23.0278V23.0058Z" fill="#D32F2F"/>
<path d="M24.3394 9.99898C24.3338 9.43043 24.2021 8.8702 23.954 8.35863C23.7059 7.84705 23.3474 7.39687 22.9043 7.04049L15.3321 1.00289C14.5244 0.353745 13.5194 -0.00012207 12.4832 -0.00012207C11.447 -0.00012207 10.4419 0.353745 9.63431 1.00289L7.23489 2.74508C7.01837 2.90048 6.87245 3.13553 6.82922 3.39852C6.786 3.66151 6.84902 3.9309 7.00442 4.14742C7.15983 4.36395 7.39487 4.50987 7.65787 4.55309C7.92086 4.59631 8.19024 4.53329 8.40677 4.37789L10.8399 2.55904C11.303 2.17829 11.8839 1.97013 12.4834 1.97013C13.083 1.97013 13.6639 2.17829 14.127 2.55904L21.6988 8.59664C21.914 8.76711 22.0886 8.98338 22.2099 9.22975C22.3312 9.47611 22.3961 9.74639 22.3999 10.021V20.0581C22.3999 20.4466 22.3234 20.8313 22.1747 21.1902C22.0261 21.5492 21.8081 21.8753 21.5334 22.15C21.2587 22.4248 20.9325 22.6427 20.5736 22.7914C20.2147 22.94 19.83 23.0166 19.4414 23.0166H17.1953C17.0849 23.0166 16.9789 22.9727 16.9008 22.8946C16.8227 22.8165 16.7788 22.7105 16.7788 22.6001V18.0747C16.7788 17.382 16.5044 16.7176 16.0157 16.2268C15.5269 15.736 14.8636 15.4589 14.1709 15.456H10.8838C10.5399 15.456 10.1994 15.5236 9.88163 15.6552C9.56389 15.7868 9.27519 15.9797 9.03201 16.2229C8.78883 16.466 8.59595 16.7547 8.46437 17.0725C8.33279 17.3902 8.2651 17.7308 8.26517 18.0747V19.8061C8.26224 19.9375 8.28559 20.0681 8.33383 20.1903C8.38207 20.3124 8.45424 20.4238 8.5461 20.5177C8.63795 20.6116 8.74765 20.6862 8.86874 20.7372C8.98983 20.7881 9.11988 20.8144 9.25125 20.8144C9.38262 20.8144 9.51267 20.7881 9.63377 20.7372C9.75486 20.6862 9.86455 20.6116 9.95641 20.5177C10.0483 20.4238 10.1204 20.3124 10.1687 20.1903C10.2169 20.0681 10.2403 19.9375 10.2373 19.8061V18.0747C10.2358 17.9903 10.251 17.9065 10.2822 17.8282C10.3135 17.7498 10.36 17.6784 10.4191 17.6182C10.4782 17.558 10.5487 17.5102 10.6264 17.4776C10.7042 17.445 10.7877 17.4282 10.8721 17.4282H14.1602C14.3285 17.4282 14.49 17.4951 14.609 17.6141C14.7281 17.7331 14.795 17.8946 14.795 18.0629V22.5991C14.7978 23.2337 15.0519 23.8414 15.5017 24.2891C15.9514 24.7369 16.5602 24.9882 17.1949 24.9882H19.3848C20.0339 24.9885 20.6766 24.8609 21.2764 24.6127C21.8761 24.3645 22.4211 24.0006 22.8802 23.5418C23.3393 23.083 23.7035 22.5382 23.952 21.9387C24.2005 21.3391 24.3285 20.6964 24.3286 20.0473L24.3394 9.99898Z" fill="#D32F2F"/>
</g>
<defs>
<clipPath id="clip0_2024_315">
<rect width="25" height="25" fill="white"/>
</clipPath>
</defs>
</svg>
