<svg xmlns="http://www.w3.org/2000/svg" version="1.1" xmlns:xlink="http://www.w3.org/1999/xlink" width="512" height="512" x="0" y="0" viewBox="0 0 548.253 548.253" style="enable-background:new 0 0 512 512" xml:space="preserve" class=""><g><g fill-rule="evenodd" clip-rule="evenodd"><path d="M497.252 44.625v484.5a19.123 19.123 0 0 1-10.2 16.906 19.1 19.1 0 0 1-19.712-1.122l-63.622-43.426-60.155 43.172c-7.217 5.202-17.06 4.717-23.741-1.148l-45.696-39.958-45.696 39.958c-6.681 5.865-16.524 6.35-23.74 1.148l-60.155-43.172-63.622 43.426a19.103 19.103 0 0 1-19.712 1.122 19.125 19.125 0 0 1-10.2-16.906v-484.5C51.002 19.992 70.968 0 95.627 0h357c24.658 0 44.625 19.992 44.625 44.625zm-38.25 0a6.377 6.377 0 0 0-6.375-6.375h-357a6.377 6.377 0 0 0-6.375 6.375v448.29l44.778-30.574a19.099 19.099 0 0 1 21.93.255l58.701 42.151 46.869-41.004a19.1 19.1 0 0 1 25.194 0l46.869 41.004 58.701-42.151a19.099 19.099 0 0 1 21.93-.255l44.778 30.574z" fill="#000000" opacity="1" data-original="#000000" class=""></path><path d="M172.127 140.25c-10.557 0-19.125-8.568-19.125-19.125S161.57 102 172.127 102h204c10.557 0 19.125 8.568 19.125 19.125s-8.568 19.125-19.125 19.125zM172.127 242.25c-10.557 0-19.125-8.568-19.125-19.125S161.57 204 172.127 204h204c10.557 0 19.125 8.568 19.125 19.125s-8.568 19.125-19.125 19.125zM172.127 344.25c-10.557 0-19.125-8.568-19.125-19.125S161.57 306 172.127 306h102c10.557 0 19.125 8.568 19.125 19.125s-8.568 19.125-19.125 19.125z" fill="#000000" opacity="1" data-original="#000000" class=""></path></g></g></svg>